<?xml version="1.0" encoding="utf-8"?>
<!-- Generator: Adobe Illustrator 17.0.0, SVG Export Plug-In . SVG Version: 6.00 Build 0)  -->
<!DOCTYPE svg PUBLIC "-//W3C//DTD SVG 1.1//EN" "http://www.w3.org/Graphics/SVG/1.1/DTD/svg11.dtd">
<svg version="1.1" id="Layer_1" xmlns="http://www.w3.org/2000/svg" xmlns:xlink="http://www.w3.org/1999/xlink" x="0px" y="0px"
	 width="52px" height="52px" viewBox="0 0 52 52" enable-background="new 0 0 52 52" xml:space="preserve">
<g>
	<polygon fill="#FFFFFF" points="22.9,32.7 20.1,33.1 18.5,33.3 17.8,31.8 16.8,29.1 14.1,28 14.1,28 8,39.4 16,37.8 19.1,45.3 
		24.9,34.6 24.5,33.9 	"/>
	<polygon fill="#FFFFFF" points="38.8,30.5 37.8,28.5 36.2,29.1 35.2,31.8 34.5,33.3 32.9,33.1 30.1,32.7 27.8,34.4 27,35.1 
		27.7,36.4 33.9,48 37,40.5 45,42.1 	"/>
	<path fill="#FFFFFF" d="M33.2,31l1.4-3.5l3.5-1.4l-0.5-3.7l2.3-3l-2.3-3l0.5-3.7l-3.5-1.4l-1.4-3.5l-3.7,0.5l-3-2.3l-3,2.3
		l-3.7-0.5l-1.4,3.5l-3.5,1.4l0.5,3.7l-2.3,3l2.3,3l-0.5,3.7l3.5,1.4l1.4,3.5l3.7-0.5l3,2.3l3-2.3L33.2,31z M19.5,19.4
		c0-3.9,3.1-7,7-7c3.9,0,7,3.1,7,7s-3.1,7-7,7C22.6,26.4,19.5,23.3,19.5,19.4z"/>
</g>
</svg>
