<?xml version="1.0" encoding="utf-8"?>
<!-- Generator: Adobe Illustrator 17.0.0, SVG Export Plug-In . SVG Version: 6.00 Build 0)  -->
<!DOCTYPE svg PUBLIC "-//W3C//DTD SVG 1.1//EN" "http://www.w3.org/Graphics/SVG/1.1/DTD/svg11.dtd">
<svg version="1.1" id="Layer_1" xmlns="http://www.w3.org/2000/svg" xmlns:xlink="http://www.w3.org/1999/xlink" x="0px" y="0px"
	 width="52px" height="52px" viewBox="0 0 52 52" enable-background="new 0 0 52 52" xml:space="preserve">
<g>
	<path fill="#FFFFFF" d="M41.8,11.8h-4.7V8.6c0-0.9-0.7-1.6-1.6-1.6c-0.9,0-1.6,0.7-1.6,1.6v3.2H18.1V8.6c0-0.9-0.7-1.6-1.6-1.6
		c-0.9,0-1.6,0.7-1.6,1.6v3.2h-4.8c-1.7,0-3.2,1.4-3.2,3.2v26.9c0,1.7,1.4,3.2,3.2,3.2h31.7c1.7,0,3.2-1.4,3.2-3.2V14.9
		C45,13.2,43.6,11.8,41.8,11.8 M33.9,14.5v1.2c0,0.9,0.7,1.6,1.6,1.6c0.9,0,1.6-0.7,1.6-1.6v-1.2c0.6,0.5,1,1.2,1,2
		c0,1.4-1.2,2.6-2.6,2.6c-1.4,0-2.6-1.2-2.6-2.6C32.9,15.7,33.3,15,33.9,14.5 M14.9,14.5v1.2c0,0.9,0.7,1.6,1.6,1.6
		c0.9,0,1.6-0.7,1.6-1.6v-1.2c0.6,0.5,1,1.2,1,2c0,1.4-1.2,2.6-2.6,2.6c-1.4,0-2.6-1.2-2.6-2.6C13.9,15.7,14.3,15,14.9,14.5
		 M41.8,41.8H10.2V21.3h31.7V41.8z"/>
	<path fill="#FFFFFF" d="M25.2,37.1h-7.5c0.7-1.6,2.2-2.3,3.3-3.2c1.1-0.9,4.2-2.9,4.2-5.5c0-2.6-1.5-4.8-5.1-4.8
		c-4.9,0-5.9,3.4-5.9,4.8l2.4,0.8v-0.8c0-0.8,0.8-2.5,3.6-2.5c1.7,0,2.8,0.8,2.8,2.5c0,1.8-2.6,3.3-4.4,4.6
		c-1.2,0.8-4.3,3.3-4.3,6.1v0.4h11.1V37.1z"/>
	<path fill="#FFFFFF" d="M36.3,33.9V23.6h-2.4l-7.1,10.3v2.4h7.1v3.2h2.4v-3.2h2.4v-2.4H36.3z M33.9,33.9h-4.6l4.6-6.5V33.9z"/>
</g>
</svg>
