<?xml version="1.0" encoding="utf-8"?>
<!-- Generator: Adobe Illustrator 17.0.0, SVG Export Plug-In . SVG Version: 6.00 Build 0)  -->
<!DOCTYPE svg PUBLIC "-//W3C//DTD SVG 1.1//EN" "http://www.w3.org/Graphics/SVG/1.1/DTD/svg11.dtd">
<svg version="1.1" id="Layer_1" xmlns="http://www.w3.org/2000/svg" xmlns:xlink="http://www.w3.org/1999/xlink" x="0px" y="0px"
	 width="52px" height="52px" viewBox="0 0 52 52" enable-background="new 0 0 52 52" xml:space="preserve">
<g>
	<path fill="#FFFFFF" d="M51,22.3L26,8L1,22.3l6,3.6l0,0v9.4c-1.7,2.4-1.7,5-1.7,5h2.2h2.2V38c0-1.3-0.6-2.4-1.2-3v-8.1l4.3,2.6
		v-2.6c0,0,3.2-4.7,13.6-4.5c9.1,0.2,12.8,4,12.8,4v2.2L51,22.3z"/>
	<path fill-rule="evenodd" clip-rule="evenodd" fill="#FFFFFF" d="M37.5,28.3c0,0-4.5-3.4-11.4-3.4c-6.9,0-11.4,3.4-11.4,3.4l0,12
		c4,0.1,7.8,2,11.4,3.7c1.1-0.6,6.1-3.8,11.4-3.8L37.5,28.3z"/>
</g>
</svg>
